<svg xmlns="http://www.w3.org/2000/svg" viewBox="0 0 240.94 155.91"><defs><style>.cls-1{fill:#dc0814;}.cls-2{fill:#ffe400;}.cls-3{fill:#fff;}.cls-4{fill:#004a99;}.cls-5{font-size:15px;font-family:Arial-BoldMT, Arial;font-weight:700;}.cls-6{font-size:12px;}.cls-10,.cls-11,.cls-6,.cls-9{font-family:ArialMT, Arial;}.cls-7{letter-spacing:-0.04em;}.cls-8{letter-spacing:-0.02em;}.cls-9{font-size:6px;}.cls-10{font-size:8px;}.cls-11{font-size:7px;}</style></defs><title>Zeichenfläche 1</title><g id="icon"><path class="cls-1" d="M76.1,35.9s0-.17-.1-.85a36.75,36.75,0,0,0-72.89,0c-.09.68-.1.85-.1.85a3.9,3.9,0,0,0,.58,2.21L14.83,54.52a28.68,28.68,0,0,0,49.45,0L75.52,38.11A3.9,3.9,0,0,0,76.1,35.9Z"/><path class="cls-2" d="M68.81,31.12c0,.15.07.2.08.33s-.1.1-.22.07a.68.68,0,0,1-.11-.37C68.67,31.17,68.69,31.09,68.81,31.12Z"/><path class="cls-2" d="M12.38,30.26,7.52,28.32,8.46,26a1.87,1.87,0,0,1,.81-1,1.48,1.48,0,0,1,1.2,0,1.47,1.47,0,0,1,.66.49,1,1,0,0,1,.19.7.91.91,0,0,1,.53-.32,1.83,1.83,0,0,1,.78.14l.58.21h0c.29.11.49.11.6,0l.15.06-.44,1.09a.92.92,0,0,1-.28,0,1.9,1.9,0,0,1-.38-.11L12.37,27a1,1,0,0,0-.68-.07.81.81,0,0,0-.38.49l-.42,1.06,1.89.75ZM10,28.17,10.51,27a.83.83,0,0,0,.07-.62.61.61,0,0,0-.41-.37.63.63,0,0,0-.55,0,.75.75,0,0,0-.37.45l-.49,1.22Z"/><path class="cls-2" d="M12.55,23.37a2.78,2.78,0,0,1-1.26-1.72,2.4,2.4,0,0,1,.44-1.95,2.47,2.47,0,0,1,1.68-1.11,2.82,2.82,0,0,1,2.05.57,2.87,2.87,0,0,1,1.26,1.71,2.46,2.46,0,0,1-.45,2,2.38,2.38,0,0,1-1.67,1.11A2.82,2.82,0,0,1,12.55,23.37Zm.62-.91a2.1,2.1,0,0,0,1.32.45,1.45,1.45,0,0,0,1.23-1.77,2,2,0,0,0-.88-1.08,2.1,2.1,0,0,0-1.32-.45,1.31,1.31,0,0,0-1,.62,1.27,1.27,0,0,0-.22,1.16A2,2,0,0,0,13.17,22.46Z"/><path class="cls-2" d="M20.44,17.83l-.78.75-1.34-1.42-3.64-1.07,1-.91,2.36.87-.8-2.35.89-.85,1,3.57Z"/><path class="cls-2" d="M20.71,11l1-.68,4.44,3.36-1,.61-.88-.7-1.7,1.1.3,1.09-.95.62Zm1.1.54.61,2.26L23.63,13Z"/><path class="cls-2" d="M27.52,13.06l-2-4.85,1-.4,1.6,4,2.37-1,.36.9Z"/><path class="cls-2" d="M35.26,10.66l-.42-5.21,2.52-.21a1.88,1.88,0,0,1,1.3.26,1.42,1.42,0,0,1,.5,1.08A1.53,1.53,0,0,1,39,7.4a1,1,0,0,1-.54.48.85.85,0,0,1,.52.33,1.79,1.79,0,0,1,.23.75l.07.62v0c0,.31.11.49.25.55v.16l-1.18.1a.85.85,0,0,1-.1-.27,1.72,1.72,0,0,1-.07-.38l-.06-.55a1,1,0,0,0-.24-.64.84.84,0,0,0-.6-.12l-1.14.1.17,2Zm.83-3,1.26-.1a.93.93,0,0,0,.59-.22.65.65,0,0,0,.15-.54.65.65,0,0,0-.22-.5.8.8,0,0,0-.58-.13L36,6.26Z"/><path class="cls-2" d="M43.33,5.36l1.23.15,1.21,5.43-1.12-.14-.22-1.11-2-.26-.47,1-1.13-.15Zm.48,1.12-1,2.11,1.45.19Z"/><path class="cls-2" d="M47.19,11.31l1.74-4.93L50,6.76l.8,4.09L52,7.46l1,.36-1.74,4.93-1-.37-.82-4.1-1.2,3.39Z"/><path class="cls-2" d="M56.57,15.11a1.76,1.76,0,0,1-1.7-.18,2.25,2.25,0,0,1-1.09-1.59,2.91,2.91,0,0,1,.49-2.06A2.89,2.89,0,0,1,55.92,10a2.3,2.3,0,0,1,1.93.34A2.6,2.6,0,0,1,59,11.55,1.89,1.89,0,0,1,58.88,13L58,12.45a1,1,0,0,0,0-.74,1.34,1.34,0,0,0-.56-.61A1.27,1.27,0,0,0,56.25,11a2.18,2.18,0,0,0-1,.93,2.05,2.05,0,0,0-.38,1.33,1.31,1.31,0,0,0,.64,1,1.27,1.27,0,0,0,.89.2,1.31,1.31,0,0,0,.8-.47l-1-.64.48-.75,1.83,1.16L57,16.09l-.61-.39Z"/><path class="cls-2" d="M58.46,17.35l3.67-3.72,2.71,2.67L64.2,17l-2-1.93-.78.8,1.78,1.76-.63.63-1.78-1.76-1,1,2,2-.68.69Z"/><path class="cls-2" d="M62.36,21.46l4.35-2.9,1.41,2.12a1.9,1.9,0,0,1,.4,1.26,1.46,1.46,0,0,1-.71,1,1.44,1.44,0,0,1-.77.27,1,1,0,0,1-.69-.24.83.83,0,0,1,0,.61,1.78,1.78,0,0,1-.55.57l-.5.36h0q-.39.27-.36.48l-.14.09-.65-1a.87.87,0,0,1,.18-.22,2.82,2.82,0,0,1,.3-.25l.45-.31a1.11,1.11,0,0,0,.45-.52.84.84,0,0,0-.19-.59l-.63-.95L63,22.36Zm3-.73.7,1.05a.88.88,0,0,0,.47.41.64.64,0,0,0,.54-.13.66.66,0,0,0,.33-.44.83.83,0,0,0-.16-.57L66.56,20Z"/><path class="cls-2" d="M67,25.84l.39,1a.89.89,0,0,0-.46.56,1.39,1.39,0,0,0,.12.86,1.11,1.11,0,0,0,.42.59.54.54,0,0,0,.54,0c.3-.12.37-.64.23-1.56v0s0-.06,0-.11a3.46,3.46,0,0,1-.06-1.11,1.19,1.19,0,0,1,.29-.57,1.64,1.64,0,0,1,.6-.39,1.4,1.4,0,0,1,1.28,0,2.44,2.44,0,0,1,.94,1.25,2.19,2.19,0,0,1,.12,1.49,1.62,1.62,0,0,1-.93,1l-.38-1a.79.79,0,0,0,.43-.49,1.21,1.21,0,0,0-.09-.77,1.12,1.12,0,0,0-.4-.54.53.53,0,0,0-.52,0c-.26.1-.34.45-.25,1.06,0,.16,0,.29.06.38q.08.59.09.84a2.13,2.13,0,0,1,0,.45,1.12,1.12,0,0,1-.26.62,1.45,1.45,0,0,1-.59.41,1.55,1.55,0,0,1-1.38,0A2.9,2.9,0,0,1,66,26.88,1.74,1.74,0,0,1,67,25.84Z"/><path class="cls-2" d="M69.35,31.14a.84.84,0,0,0-.22-.39.87.87,0,0,0-.38-.23,1,1,0,0,0-.48,0,1,1,0,0,0-.3.14,1,1,0,0,0-.23.26.76.76,0,0,0-.11.33.78.78,0,0,0,0,.34.69.69,0,0,0,.15.31.92.92,0,0,0,.25.23.76.76,0,0,0,.33.11.78.78,0,0,0,.34,0,.81.81,0,0,0,.31-.15.75.75,0,0,0,.22-.25.66.66,0,0,0,.12-.33A.83.83,0,0,0,69.35,31.14Zm-.35.44a.2.2,0,0,1-.17.15.27.27,0,0,1-.18,0,.33.33,0,0,1-.13-.13l-.37.32-.06-.25.34-.29,0-.11-.39.1L68,31.13l.94-.25.1.37A.54.54,0,0,1,69,31.58Z"/><circle class="cls-3" cx="39.61" cy="39.74" r="26.68"/><circle class="cls-2" cx="39.61" cy="39.74" r="17.58"/><polygon class="cls-4" points="29.42 16.22 32.21 32.71 38.64 34.41 39.24 28.95 29.42 16.22"/><polygon class="cls-4" points="49.79 63.27 47.01 46.78 40.58 45.08 39.97 50.54 49.79 63.27"/><polygon class="cls-4" points="49.31 16.02 39.47 29.54 42.75 35.32 47.07 31.94 49.31 16.02"/><polygon class="cls-4" points="29.9 63.47 39.75 49.95 36.47 44.17 32.14 47.55 29.9 63.47"/><polygon class="cls-4" points="63.13 29.56 46.64 32.35 44.94 38.77 50.4 39.38 63.13 29.56"/><polygon class="cls-4" points="16.08 49.93 32.58 47.14 34.27 40.71 28.82 40.11 16.08 49.93"/><polygon class="cls-4" points="63.34 49.45 49.81 39.6 44.03 42.88 47.41 47.21 63.34 49.45"/><polygon class="cls-4" points="15.88 30.04 29.4 39.88 35.19 36.61 31.8 32.28 15.88 30.04"/><path class="cls-1" d="M27.14,52.22a28.55,28.55,0,0,0,2.55-12.48,28.53,28.53,0,0,0-2.55-12.47,28.32,28.32,0,0,0,12.47,2.56,28.35,28.35,0,0,0,12.47-2.56,28.39,28.39,0,0,0-2.56,12.47,28.4,28.4,0,0,0,2.56,12.48,28.35,28.35,0,0,0-12.47-2.56,28.32,28.32,0,0,0-12.47,2.56Z"/><polygon points="63.39 39.48 44.41 35.25 39.73 14.24 35.11 34.94 14.11 39.62 34.8 44.24 39.49 65.25 44.1 44.55 65.11 39.87 63.39 39.48"/><polygon class="cls-2" points="39.49 40.05 39.49 63.44 35.2 44.22 39.49 40.05"/><polygon class="cls-2" points="39.73 39.44 39.73 16.05 44.02 35.27 39.73 39.44"/><polygon class="cls-2" points="39.91 39.87 63.3 39.87 44.09 44.15 39.91 39.87"/><polygon class="cls-2" points="39.3 39.62 15.91 39.62 35.13 35.34 39.3 39.62"/></g><g id="name"><text class="cls-5" transform="translate(93.67 28.33)">Royal Rangers Kiel</text></g><g id="Stamm"><text class="cls-6" transform="translate(93.67 39.38)">Stammnummer 104</text></g><g id="info"><text class="cls-6" transform="translate(93.67 63.33)"><tspan class="cls-7">T</tspan><tspan x="6.88" y="0">re</tspan><tspan class="cls-8" x="17.56" y="0">f</tspan><tspan x="20.67" y="0">fen:</tspan><tspan x="0" y="14.4">Jeden Freitag um 16:30 *</tspan><tspan x="0" y="28.8">Christliche Schule Kiel</tspan><tspan x="0" y="43.2">Diesterwegstraße 16</tspan></text><text class="cls-9" transform="translate(72.29 74.95)"><tspan class="cls-7">W</tspan><tspan x="5.44" y="0">ann:</tspan></text><text class="cls-9" transform="translate(78.43 89.67)"><tspan class="cls-8">W</tspan><tspan x="5.55" y="0">o:</tspan></text></g><g id="disclaimer_or_sth_alike" data-name="disclaimer or sth alike"><text class="cls-10" transform="translate(4.67 151)">*Stammtre<tspan class="cls-8" x="37.79" y="0">f</tspan><tspan x="39.86" y="0">fe nur außerhalb der Ferien</tspan></text></g><g id="more_info" data-name="more info"><text class="cls-11" transform="translate(93.67 114.33)">Mehr Informationen auf der Rückseite</text></g></svg>